[img]http://img593.imageshack.us/img593/5549/seeking.gif[/img]
[code]
Seeking Justice 2011 R3 DVDRip XviD AC3-26K

Imdb: 
http://www.imdb.com/title/tt1214962/

Plot:
After his wife is assaulted, a husband enlists the services of a vigilante group to help him settle the 

score.

Sources:
DVDR VOBS THNXS FOR THEM M8 YOU ROCK

Notes:
THE DVDR HAD THIA AUDIO AS WELL AS ENGLISH AUDIO :) subs can be found in the subs folder!... so enjoy 

this R3 region which is asia dvd region code...
added a few filters to video so enjoy.!

Greetz:
Xtreme 

Encode|FYA|ILLUMANTI|CM8|RX|VISION|HDSCENE|NIGHTMAREZ|xTriLL|DTRG|CRYS|REMIXHD|BIDA|RX|REFILL|INSPiRAL|S

IC|ZOMBIESZ|HOPE|Anonymous
To all the people who have helped me :P you know who you are

Anything to offer email us @: 26k@hushmail.me

Video
ID                                       : 0
Format                                   : MPEG-4 Visual
Format profile                           : Advanced Simple@L5
Format settings, BVOP                    : 2
Format settings, QPel                    : No
Format settings, GMC                     : No warppoints
Format settings, Matrix                  : Default (H.263)
Muxing mode                              : Packed bitstream
Codec ID                                 : XVID
Codec ID/Hint                            : XviD
Duration                                 : 1h 44mn
Bit rate                                 : 1 799 Kbps
Width                                    : 720 pixels
Height                                   : 408 pixels
Display aspect ratio                     : 16:9
Frame rate                               : 29.970 fps
Color space                              : YUV
Chroma subsampling                       : 4:2:0
Bit depth                                : 8 bits
Scan type                                : Progressive
Compression mode                         : Lossy
Bits/(Pixel*Frame)                       : 0.204
Stream size                              : 1.32 GiB (82%)
Writing library                          : XviD 1.2.1 (UTC 2008-12-04)

Audio
ID                                       : 1
Format                                   : AC-3
Format/Info                              : Audio Coding 3
Mode extension                           : CM (complete main)
Codec ID                                 : 2000
Duration                                 : 1h 44mn
Bit rate mode                            : Constant
Bit rate                                 : 384 Kbps
Channel(s)                               : 6 channels
Channel positions                        : Front: L C R, Side: L R, LFE
Sampling rate                            : 48.0 KHz
Bit depth                                : 16 bits
Compression mode                         : Lossy
Stream size                              : 288 MiB (17%)
Alignment                                : Aligned on interleaves
Interleave, duration                     : 32 ms (0.96 video frame)
Interleave, preload duration             : 32 ms

[/code]
Screens:
[img]http://img513.imageshack.us/img513/889/vlcsnap2012012121h15m49.png[/img]
[img]http://img819.imageshack.us/img819/6559/vlcsnap2012012121h15m55.png[/img]
[img]http://img685.imageshack.us/img685/4341/vlcsnap2012012121h16m02.png[/img]
[img]http://img577.imageshack.us/img577/1627/vlcsnap2012012121h16m08.png[/img]
[img]http://img593.imageshack.us/img593/1378/vlcsnap2012012121h16m24.png[/img]

[img]http://img851.imageshack.us/img851/5503/26ks.jpg[/img]
Thank you smallz for banner!